<?xml version="1.0" encoding="UTF-8"?>
<svg id="Layer_3" data-name="Layer 3" xmlns="http://www.w3.org/2000/svg" viewBox="0 0 307.51 348.74">
  <defs>
    <style>
      .cls-1 {
        fill: none;
        stroke: #102129;
        stroke-miterlimit: 10;
        stroke-width: 16px;
      }

      .cls-2 {
        fill: #102129;
      }
    </style>
  </defs>
  <path class="cls-2" d="m159.4,243.82l50.68-29.15c3.98-2.29,6.43-6.52,6.43-11.11v-56.88c0-4.56-2.42-8.78-6.36-11.07l-50.68-29.53c-4.03-2.35-9.03-2.32-13.04.08l-49.18,29.44c-3.87,2.31-6.23,6.49-6.23,11v57.08c0,4.53,2.39,8.73,6.3,11.03l49.18,29.05c3.98,2.35,8.91,2.38,12.91.07Z"/>
  <path class="cls-1" d="m159.36,338.75l132.66-76.31c4.63-2.66,7.49-7.6,7.49-12.95V100.25c0-5.31-2.82-10.23-7.41-12.9L159.44,10.03c-4.7-2.74-10.52-2.71-15.19.09L15.26,87.32c-4.51,2.7-7.26,7.56-7.26,12.82v149.48c0,5.28,2.79,10.17,7.34,12.86l128.98,76.19c4.63,2.74,10.38,2.77,15.04.09Z"/>
</svg>